classDiagram
  %% 366:310:1
  class IERC1155MetadataURI {
    <<Interface>>
    #uri(uint256 id): (string memory)$
  }
  
  IERC1155MetadataURI --|> IERC1155
  
  %% 336:4384:0
  class IERC1155 {
    <<Interface>>
    #balanceOf(address account, uint256 id): (uint256)$
    #balanceOfBatch(address[] calldata accounts, uint256[] calldata ids): (uint256[] memory)$
    #setApprovalForAll(address operator, bool approved)$
    #isApprovedForAll(address account, address operator): (bool)$
    #safeTransferFrom(address from, address to, uint256 id, uint256 value, bytes calldata data)$
    #safeBatchTransferFrom(address from, address to, uint256[] calldata ids, uint256[] calldata values, bytes calldata data)$
  }
  
  IERC1155 --|> IERC165
  
  %% 421:447:2
  class IERC165 {
    <<Interface>>
    #supportsInterface(bytes4 interfaceId): (bool)$
  }
  