classDiagram
  %% 1401:9741:1
  class ERC20 {
    <<Contract>>
    ~constructor(string memory name_, string memory symbol_)
    +name(): (string memory)
    +symbol(): (string memory)
    +decimals(): (uint8)
    +totalSupply(): (uint256)
    +balanceOf(address account): (uint256)
    +transfer(address to, uint256 value): (bool)
    +allowance(address owner, address spender): (uint256)
    +approve(address spender, uint256 value): (bool)
    +transferFrom(address from, address to, uint256 value): (bool)
    ~_transfer(address from, address to, uint256 value)
    ~_update(address from, address to, uint256 value)
    ~_mint(address account, uint256 value)
    ~_burn(address account, uint256 value)
    ~_approve(address owner, address spender, uint256 value)
    ~_approve(address owner, address spender, uint256 value, bool emitEvent)
    ~_spendAllowance(address owner, address spender, uint256 value)
  }
  
  ERC20 --|> Context
  
  %% 624:235:4
  class Context {
    <<Contract>>
    ~_msgSender(): (address)
    ~_msgData(): (bytes calldata)
  }
  
  ERC20 --|> IERC20
  
  %% 203:2575:2
  class IERC20 {
    <<Interface>>
    #totalSupply(): (uint256)$
    #balanceOf(address account): (uint256)$
    #transfer(address to, uint256 value): (bool)$
    #allowance(address owner, address spender): (uint256)$
    #approve(address spender, uint256 value): (bool)$
    #transferFrom(address from, address to, uint256 value): (bool)$
  }
  
  ERC20 --|> IERC20Metadata
  
  %% 277:405:3
  class IERC20Metadata {
    <<Interface>>
    #name(): (string memory)$
    #symbol(): (string memory)$
    #decimals(): (uint8)$
  }
  
  IERC20Metadata --|> IERC20
  
  %% 203:2575:2
  class IERC20 {
    <<Interface>>
    #totalSupply(): (uint256)$
    #balanceOf(address account): (uint256)$
    #transfer(address to, uint256 value): (bool)$
    #allowance(address owner, address spender): (uint256)$
    #approve(address spender, uint256 value): (bool)$
    #transferFrom(address from, address to, uint256 value): (bool)$
  }
  
  ERC20 --|> IERC20Errors
  
  %% 278:1764:0
  class IERC20Errors {
    <<Interface>>
  }
  