classDiagram
  %% 1138:3261:13
  class ERC721PresetMinterPauserAutoId {
    <<Contract>>
    +constructor(string memory name, string memory symbol, string memory baseTokenURI)
    ~_baseURI(): (string memory)
    +mint(address to)
    +pause()
    +unpause()
    ~_beforeTokenTransfer(address from, address to, uint256 firstTokenId, uint256 batchSize)
    +supportsInterface(bytes4 interfaceId): (bool)
  }
  
  ERC721PresetMinterPauserAutoId --|> Context
  
  %% 608:235:15
  class Context {
    <<Contract>>
    ~_msgSender(): (address)
    ~_msgData(): (bytes calldata)
  }
  
  ERC721PresetMinterPauserAutoId --|> AccessControlEnumerable
  
  %% 355:2051:1
  class AccessControlEnumerable {
    <<Contract>>
    +supportsInterface(bytes4 interfaceId): (bool)
    +getRoleMember(bytes32 role, uint256 index): (address)
    +getRoleMemberCount(bytes32 role): (uint256)
    ~_grantRole(bytes32 role, address account)
    ~_revokeRole(bytes32 role, address account)
  }
  
  AccessControlEnumerable --|> IAccessControlEnumerable
  
  %% 261:966:3
  class IAccessControlEnumerable {
    <<Interface>>
    #getRoleMember(bytes32 role, uint256 index): (address)$
    #getRoleMemberCount(bytes32 role): (uint256)$
  }
  
  IAccessControlEnumerable --|> IAccessControl
  
  %% 209:2710:2
  class IAccessControl {
    <<Interface>>
    #hasRole(bytes32 role, address account): (bool)$
    #getRoleAdmin(bytes32 role): (bytes32)$
    #grantRole(bytes32 role, address account)$
    #revokeRole(bytes32 role, address account)$
    #renounceRole(bytes32 role, address account)$
  }
  
  AccessControlEnumerable --|> AccessControl
  
  %% 1806:6295:0
  class AccessControl {
    <<Contract>>
    +supportsInterface(bytes4 interfaceId): (bool)
    +hasRole(bytes32 role, address account): (bool)
    ~_checkRole(bytes32 role)
    ~_checkRole(bytes32 role, address account)
    +getRoleAdmin(bytes32 role): (bytes32)
    +grantRole(bytes32 role, address account)
    +revokeRole(bytes32 role, address account)
    +renounceRole(bytes32 role, address account)
    ~_setupRole(bytes32 role, address account)
    ~_setRoleAdmin(bytes32 role, bytes32 adminRole)
    ~_grantRole(bytes32 role, address account)
    ~_revokeRole(bytes32 role, address account)
  }
  
  AccessControl --|> Context
  
  %% 608:235:15
  class Context {
    <<Contract>>
    ~_msgSender(): (address)
    ~_msgData(): (bytes calldata)
  }
  
  AccessControl --|> IAccessControl
  
  %% 209:2710:2
  class IAccessControl {
    <<Interface>>
    #hasRole(bytes32 role, address account): (bool)$
    #getRoleAdmin(bytes32 role): (bytes32)$
    #grantRole(bytes32 role, address account)$
    #revokeRole(bytes32 role, address account)$
    #renounceRole(bytes32 role, address account)$
  }
  
  AccessControl --|> ERC165
  
  %% 726:260:18
  class ERC165 {
    <<Contract>>
    +supportsInterface(bytes4 interfaceId): (bool)
  }
  
  ERC165 --|> IERC165
  
  %% 405:447:19
  class IERC165 {
    <<Interface>>
    #supportsInterface(bytes4 interfaceId): (bool)$
  }
  
  ERC721PresetMinterPauserAutoId --|> ERC721Enumerable
  
  %% 412:6395:9
  class ERC721Enumerable {
    <<Contract>>
    +supportsInterface(bytes4 interfaceId): (bool)
    +tokenOfOwnerByIndex(address owner, uint256 index): (uint256)
    +totalSupply(): (uint256)
    +tokenByIndex(uint256 index): (uint256)
    ~_beforeTokenTransfer(address from, address to, uint256 firstTokenId, uint256 batchSize)
    -_addTokenToOwnerEnumeration(address to, uint256 tokenId)
    -_addTokenToAllTokensEnumeration(uint256 tokenId)
    -_removeTokenFromOwnerEnumeration(address from, uint256 tokenId)
    -_removeTokenFromAllTokensEnumeration(uint256 tokenId)
  }
  
  ERC721Enumerable --|> ERC721
  
  %% 628:16327:5
  class ERC721 {
    <<Contract>>
    +constructor(string memory name_, string memory symbol_)
    +supportsInterface(bytes4 interfaceId): (bool)
    +balanceOf(address owner): (uint256)
    +ownerOf(uint256 tokenId): (address)
    +name(): (string memory)
    +symbol(): (string memory)
    +tokenURI(uint256 tokenId): (string memory)
    ~_baseURI(): (string memory)
    +approve(address to, uint256 tokenId)
    +getApproved(uint256 tokenId): (address)
    +setApprovalForAll(address operator, bool approved)
    +isApprovedForAll(address owner, address operator): (bool)
    +transferFrom(address from, address to, uint256 tokenId)
    +safeTransferFrom(address from, address to, uint256 tokenId)
    +safeTransferFrom(address from, address to, uint256 tokenId, bytes memory data)
    ~_safeTransfer(address from, address to, uint256 tokenId, bytes memory data)
    ~_ownerOf(uint256 tokenId): (address)
    ~_exists(uint256 tokenId): (bool)
    ~_isApprovedOrOwner(address spender, uint256 tokenId): (bool)
    ~_safeMint(address to, uint256 tokenId)
    ~_safeMint(address to, uint256 tokenId, bytes memory data)
    ~_mint(address to, uint256 tokenId)
    ~_burn(uint256 tokenId)
    ~_transfer(address from, address to, uint256 tokenId)
    ~_approve(address to, uint256 tokenId)
    ~_setApprovalForAll(address owner, address operator, bool approved)
    ~_requireMinted(uint256 tokenId)
    -_checkOnERC721Received(address from, address to, uint256 tokenId, bytes memory data): (bool)
    ~_beforeTokenTransfer(address from, address to, uint256, uint256 batchSize)
    ~_afterTokenTransfer(address from, address to, uint256 firstTokenId, uint256 batchSize)
  }
  
  ERC721 --|> Context
  
  %% 608:235:15
  class Context {
    <<Contract>>
    ~_msgSender(): (address)
    ~_msgData(): (bytes calldata)
  }
  
  ERC721 --|> ERC165
  
  %% 726:260:18
  class ERC165 {
    <<Contract>>
    +supportsInterface(bytes4 interfaceId): (bool)
  }
  
  ERC165 --|> IERC165
  
  %% 405:447:19
  class IERC165 {
    <<Interface>>
    #supportsInterface(bytes4 interfaceId): (bool)$
  }
  
  ERC721 --|> IERC721
  
  %% 250:4725:6
  class IERC721 {
    <<Interface>>
    #balanceOf(address owner): (uint256 balance)$
    #ownerOf(uint256 tokenId): (address owner)$
    #safeTransferFrom(address from, address to, uint256 tokenId, bytes calldata data)$
    #safeTransferFrom(address from, address to, uint256 tokenId)$
    #transferFrom(address from, address to, uint256 tokenId)$
    #approve(address to, uint256 tokenId)$
    #setApprovalForAll(address operator, bool _approved)$
    #getApproved(uint256 tokenId): (address operator)$
    #isApprovedForAll(address owner, address operator): (bool)$
  }
  
  IERC721 --|> IERC165
  
  %% 405:447:19
  class IERC165 {
    <<Interface>>
    #supportsInterface(bytes4 interfaceId): (bool)$
  }
  
  ERC721 --|> IERC721Metadata
  
  %% 297:463:12
  class IERC721Metadata {
    <<Interface>>
    #name(): (string memory)$
    #symbol(): (string memory)$
    #tokenURI(uint256 tokenId): (string memory)$
  }
  
  IERC721Metadata --|> IERC721
  
  %% 250:4725:6
  class IERC721 {
    <<Interface>>
    #balanceOf(address owner): (uint256 balance)$
    #ownerOf(uint256 tokenId): (address owner)$
    #safeTransferFrom(address from, address to, uint256 tokenId, bytes calldata data)$
    #safeTransferFrom(address from, address to, uint256 tokenId)$
    #transferFrom(address from, address to, uint256 tokenId)$
    #approve(address to, uint256 tokenId)$
    #setApprovalForAll(address operator, bool _approved)$
    #getApproved(uint256 tokenId): (address operator)$
    #isApprovedForAll(address owner, address operator): (bool)$
  }
  
  IERC721 --|> IERC165
  
  %% 405:447:19
  class IERC165 {
    <<Interface>>
    #supportsInterface(bytes4 interfaceId): (bool)$
  }
  
  ERC721Enumerable --|> IERC721Enumerable
  
  %% 317:706:11
  class IERC721Enumerable {
    <<Interface>>
    #totalSupply(): (uint256)$
    #tokenOfOwnerByIndex(address owner, uint256 index): (uint256)$
    #tokenByIndex(uint256 index): (uint256)$
  }
  
  IERC721Enumerable --|> IERC721
  
  %% 250:4725:6
  class IERC721 {
    <<Interface>>
    #balanceOf(address owner): (uint256 balance)$
    #ownerOf(uint256 tokenId): (address owner)$
    #safeTransferFrom(address from, address to, uint256 tokenId, bytes calldata data)$
    #safeTransferFrom(address from, address to, uint256 tokenId)$
    #transferFrom(address from, address to, uint256 tokenId)$
    #approve(address to, uint256 tokenId)$
    #setApprovalForAll(address operator, bool _approved)$
    #getApproved(uint256 tokenId): (address operator)$
    #isApprovedForAll(address owner, address operator): (bool)$
  }
  
  IERC721 --|> IERC165
  
  %% 405:447:19
  class IERC165 {
    <<Interface>>
    #supportsInterface(bytes4 interfaceId): (bool)$
  }
  
  ERC721PresetMinterPauserAutoId --|> ERC721Burnable
  
  %% 306:465:8
  class ERC721Burnable {
    <<Contract>>
    +burn(uint256 tokenId)
  }
  
  ERC721Burnable --|> Context
  
  %% 608:235:15
  class Context {
    <<Contract>>
    ~_msgSender(): (address)
    ~_msgData(): (bytes calldata)
  }
  
  ERC721Burnable --|> ERC721
  
  %% 628:16327:5
  class ERC721 {
    <<Contract>>
    +constructor(string memory name_, string memory symbol_)
    +supportsInterface(bytes4 interfaceId): (bool)
    +balanceOf(address owner): (uint256)
    +ownerOf(uint256 tokenId): (address)
    +name(): (string memory)
    +symbol(): (string memory)
    +tokenURI(uint256 tokenId): (string memory)
    ~_baseURI(): (string memory)
    +approve(address to, uint256 tokenId)
    +getApproved(uint256 tokenId): (address)
    +setApprovalForAll(address operator, bool approved)
    +isApprovedForAll(address owner, address operator): (bool)
    +transferFrom(address from, address to, uint256 tokenId)
    +safeTransferFrom(address from, address to, uint256 tokenId)
    +safeTransferFrom(address from, address to, uint256 tokenId, bytes memory data)
    ~_safeTransfer(address from, address to, uint256 tokenId, bytes memory data)
    ~_ownerOf(uint256 tokenId): (address)
    ~_exists(uint256 tokenId): (bool)
    ~_isApprovedOrOwner(address spender, uint256 tokenId): (bool)
    ~_safeMint(address to, uint256 tokenId)
    ~_safeMint(address to, uint256 tokenId, bytes memory data)
    ~_mint(address to, uint256 tokenId)
    ~_burn(uint256 tokenId)
    ~_transfer(address from, address to, uint256 tokenId)
    ~_approve(address to, uint256 tokenId)
    ~_setApprovalForAll(address owner, address operator, bool approved)
    ~_requireMinted(uint256 tokenId)
    -_checkOnERC721Received(address from, address to, uint256 tokenId, bytes memory data): (bool)
    ~_beforeTokenTransfer(address from, address to, uint256, uint256 batchSize)
    ~_afterTokenTransfer(address from, address to, uint256 firstTokenId, uint256 batchSize)
  }
  
  ERC721 --|> Context
  
  %% 608:235:15
  class Context {
    <<Contract>>
    ~_msgSender(): (address)
    ~_msgData(): (bytes calldata)
  }
  
  ERC721 --|> ERC165
  
  %% 726:260:18
  class ERC165 {
    <<Contract>>
    +supportsInterface(bytes4 interfaceId): (bool)
  }
  
  ERC165 --|> IERC165
  
  %% 405:447:19
  class IERC165 {
    <<Interface>>
    #supportsInterface(bytes4 interfaceId): (bool)$
  }
  
  ERC721 --|> IERC721
  
  %% 250:4725:6
  class IERC721 {
    <<Interface>>
    #balanceOf(address owner): (uint256 balance)$
    #ownerOf(uint256 tokenId): (address owner)$
    #safeTransferFrom(address from, address to, uint256 tokenId, bytes calldata data)$
    #safeTransferFrom(address from, address to, uint256 tokenId)$
    #transferFrom(address from, address to, uint256 tokenId)$
    #approve(address to, uint256 tokenId)$
    #setApprovalForAll(address operator, bool _approved)$
    #getApproved(uint256 tokenId): (address operator)$
    #isApprovedForAll(address owner, address operator): (bool)$
  }
  
  IERC721 --|> IERC165
  
  %% 405:447:19
  class IERC165 {
    <<Interface>>
    #supportsInterface(bytes4 interfaceId): (bool)$
  }
  
  ERC721 --|> IERC721Metadata
  
  %% 297:463:12
  class IERC721Metadata {
    <<Interface>>
    #name(): (string memory)$
    #symbol(): (string memory)$
    #tokenURI(uint256 tokenId): (string memory)$
  }
  
  IERC721Metadata --|> IERC721
  
  %% 250:4725:6
  class IERC721 {
    <<Interface>>
    #balanceOf(address owner): (uint256 balance)$
    #ownerOf(uint256 tokenId): (address owner)$
    #safeTransferFrom(address from, address to, uint256 tokenId, bytes calldata data)$
    #safeTransferFrom(address from, address to, uint256 tokenId)$
    #transferFrom(address from, address to, uint256 tokenId)$
    #approve(address to, uint256 tokenId)$
    #setApprovalForAll(address operator, bool _approved)$
    #getApproved(uint256 tokenId): (address operator)$
    #isApprovedForAll(address owner, address operator): (bool)$
  }
  
  IERC721 --|> IERC165
  
  %% 405:447:19
  class IERC165 {
    <<Interface>>
    #supportsInterface(bytes4 interfaceId): (bool)$
  }
  
  ERC721PresetMinterPauserAutoId --|> ERC721Pausable
  
  %% 488:516:10
  class ERC721Pausable {
    <<Contract>>
    ~_beforeTokenTransfer(address from, address to, uint256 firstTokenId, uint256 batchSize)
  }
  
  ERC721Pausable --|> ERC721
  
  %% 628:16327:5
  class ERC721 {
    <<Contract>>
    +constructor(string memory name_, string memory symbol_)
    +supportsInterface(bytes4 interfaceId): (bool)
    +balanceOf(address owner): (uint256)
    +ownerOf(uint256 tokenId): (address)
    +name(): (string memory)
    +symbol(): (string memory)
    +tokenURI(uint256 tokenId): (string memory)
    ~_baseURI(): (string memory)
    +approve(address to, uint256 tokenId)
    +getApproved(uint256 tokenId): (address)
    +setApprovalForAll(address operator, bool approved)
    +isApprovedForAll(address owner, address operator): (bool)
    +transferFrom(address from, address to, uint256 tokenId)
    +safeTransferFrom(address from, address to, uint256 tokenId)
    +safeTransferFrom(address from, address to, uint256 tokenId, bytes memory data)
    ~_safeTransfer(address from, address to, uint256 tokenId, bytes memory data)
    ~_ownerOf(uint256 tokenId): (address)
    ~_exists(uint256 tokenId): (bool)
    ~_isApprovedOrOwner(address spender, uint256 tokenId): (bool)
    ~_safeMint(address to, uint256 tokenId)
    ~_safeMint(address to, uint256 tokenId, bytes memory data)
    ~_mint(address to, uint256 tokenId)
    ~_burn(uint256 tokenId)
    ~_transfer(address from, address to, uint256 tokenId)
    ~_approve(address to, uint256 tokenId)
    ~_setApprovalForAll(address owner, address operator, bool approved)
    ~_requireMinted(uint256 tokenId)
    -_checkOnERC721Received(address from, address to, uint256 tokenId, bytes memory data): (bool)
    ~_beforeTokenTransfer(address from, address to, uint256, uint256 batchSize)
    ~_afterTokenTransfer(address from, address to, uint256 firstTokenId, uint256 batchSize)
  }
  
  ERC721 --|> Context
  
  %% 608:235:15
  class Context {
    <<Contract>>
    ~_msgSender(): (address)
    ~_msgData(): (bytes calldata)
  }
  
  ERC721 --|> ERC165
  
  %% 726:260:18
  class ERC165 {
    <<Contract>>
    +supportsInterface(bytes4 interfaceId): (bool)
  }
  
  ERC165 --|> IERC165
  
  %% 405:447:19
  class IERC165 {
    <<Interface>>
    #supportsInterface(bytes4 interfaceId): (bool)$
  }
  
  ERC721 --|> IERC721
  
  %% 250:4725:6
  class IERC721 {
    <<Interface>>
    #balanceOf(address owner): (uint256 balance)$
    #ownerOf(uint256 tokenId): (address owner)$
    #safeTransferFrom(address from, address to, uint256 tokenId, bytes calldata data)$
    #safeTransferFrom(address from, address to, uint256 tokenId)$
    #transferFrom(address from, address to, uint256 tokenId)$
    #approve(address to, uint256 tokenId)$
    #setApprovalForAll(address operator, bool _approved)$
    #getApproved(uint256 tokenId): (address operator)$
    #isApprovedForAll(address owner, address operator): (bool)$
  }
  
  IERC721 --|> IERC165
  
  %% 405:447:19
  class IERC165 {
    <<Interface>>
    #supportsInterface(bytes4 interfaceId): (bool)$
  }
  
  ERC721 --|> IERC721Metadata
  
  %% 297:463:12
  class IERC721Metadata {
    <<Interface>>
    #name(): (string memory)$
    #symbol(): (string memory)$
    #tokenURI(uint256 tokenId): (string memory)$
  }
  
  IERC721Metadata --|> IERC721
  
  %% 250:4725:6
  class IERC721 {
    <<Interface>>
    #balanceOf(address owner): (uint256 balance)$
    #ownerOf(uint256 tokenId): (address owner)$
    #safeTransferFrom(address from, address to, uint256 tokenId, bytes calldata data)$
    #safeTransferFrom(address from, address to, uint256 tokenId)$
    #transferFrom(address from, address to, uint256 tokenId)$
    #approve(address to, uint256 tokenId)$
    #setApprovalForAll(address operator, bool _approved)$
    #getApproved(uint256 tokenId): (address operator)$
    #isApprovedForAll(address owner, address operator): (bool)$
  }
  
  IERC721 --|> IERC165
  
  %% 405:447:19
  class IERC165 {
    <<Interface>>
    #supportsInterface(bytes4 interfaceId): (bool)$
  }
  
  ERC721Pausable --|> Pausable
  
  %% 602:1950:4
  class Pausable {
    <<Contract>>
    ~constructor()
    +paused(): (bool)
    ~_requireNotPaused()
    ~_requirePaused()
    ~_pause()
    ~_unpause()
  }
  
  Pausable --|> Context
  
  %% 608:235:15
  class Context {
    <<Contract>>
    ~_msgSender(): (address)
    ~_msgData(): (bytes calldata)
  }
  