classDiagram
  %% 2463:13347:6
  class GovernorTimelockAccess {
    <<Contract>>
    ~constructor(address manager, uint32 initialBaseDelay)
    +accessManager(): (contract IAccessManager)
    +baseDelaySeconds(): (uint32)
    +setBaseDelaySeconds(uint32 newBaseDelay)
    ~_setBaseDelaySeconds(uint32 newBaseDelay)
    +isAccessManagerIgnored(address target, bytes4 selector): (bool)
    +setAccessManagerIgnored(address target, bytes4[] calldata selectors, bool ignored)
    ~_setAccessManagerIgnored(address target, bytes4 selector, bool ignored)
    +proposalExecutionPlan(uint256 proposalId): (uint32 delay, bool[] memory indirect, bool[] memory withDelay)
    +proposalNeedsQueuing(uint256 proposalId): (bool)
    +propose(address[] memory targets, uint256[] memory values, bytes[] memory calldatas, string memory description): (uint256)
    ~_queueOperations(uint256 proposalId, address[] memory targets, uint256[] memory, bytes[] memory calldatas, bytes32): (uint48)
    ~_executeOperations(uint256 proposalId, address[] memory targets, uint256[] memory values, bytes[] memory calldatas, bytes32)
    ~_cancel(address[] memory targets, uint256[] memory values, bytes[] memory calldatas, bytes32 descriptionHash): (uint256)
    -_getManagerData(struct GovernorTimelockAccess.ExecutionPlan storage plan, uint256 index): (bool controlled, bool withDelay, uint32 nonce)
    -_setManagerData(struct GovernorTimelockAccess.ExecutionPlan storage plan, uint256 index, bool withDelay, uint32 nonce)
    -_getManagerDataIndices(uint256 index): (uint256 bucket, uint256 subindex)
  }
  
  GovernorTimelockAccess --|> Governor
  
  %% 1197:30252:4
  class Governor {
    <<Contract>>
    ~constructor(string memory name_)
    #receive()
    +supportsInterface(bytes4 interfaceId): (bool)
    +name(): (string memory)
    +version(): (string memory)
    +hashProposal(address[] memory targets, uint256[] memory values, bytes[] memory calldatas, bytes32 descriptionHash): (uint256)
    +state(uint256 proposalId): (enum IGovernor.ProposalState)
    +proposalThreshold(): (uint256)
    +proposalSnapshot(uint256 proposalId): (uint256)
    +proposalDeadline(uint256 proposalId): (uint256)
    +proposalProposer(uint256 proposalId): (address)
    +proposalEta(uint256 proposalId): (uint256)
    +proposalNeedsQueuing(uint256): (bool)
    ~_checkGovernance()
    ~_quorumReached(uint256 proposalId): (bool)$
    ~_voteSucceeded(uint256 proposalId): (bool)$
    ~_getVotes(address account, uint256 timepoint, bytes memory params): (uint256)$
    ~_countVote(uint256 proposalId, address account, uint8 support, uint256 weight, bytes memory params)$
    ~_defaultParams(): (bytes memory)
    +propose(address[] memory targets, uint256[] memory values, bytes[] memory calldatas, string memory description): (uint256)
    ~_propose(address[] memory targets, uint256[] memory values, bytes[] memory calldatas, string memory description, address proposer): (uint256 proposalId)
    +queue(address[] memory targets, uint256[] memory values, bytes[] memory calldatas, bytes32 descriptionHash): (uint256)
    ~_queueOperations(uint256, address[] memory, uint256[] memory, bytes[] memory, bytes32): (uint48)
    +execute(address[] memory targets, uint256[] memory values, bytes[] memory calldatas, bytes32 descriptionHash): (uint256)
    ~_executeOperations(uint256, address[] memory targets, uint256[] memory values, bytes[] memory calldatas, bytes32)
    +cancel(address[] memory targets, uint256[] memory values, bytes[] memory calldatas, bytes32 descriptionHash): (uint256)
    ~_cancel(address[] memory targets, uint256[] memory values, bytes[] memory calldatas, bytes32 descriptionHash): (uint256)
    +getVotes(address account, uint256 timepoint): (uint256)
    +getVotesWithParams(address account, uint256 timepoint, bytes memory params): (uint256)
    +castVote(uint256 proposalId, uint8 support): (uint256)
    +castVoteWithReason(uint256 proposalId, uint8 support, string calldata reason): (uint256)
    +castVoteWithReasonAndParams(uint256 proposalId, uint8 support, string calldata reason, bytes memory params): (uint256)
    +castVoteBySig(uint256 proposalId, uint8 support, address voter, bytes memory signature): (uint256)
    +castVoteWithReasonAndParamsBySig(uint256 proposalId, uint8 support, address voter, string calldata reason, bytes memory params, bytes memory signature): (uint256)
    ~_castVote(uint256 proposalId, address account, uint8 support, string memory reason): (uint256)
    ~_castVote(uint256 proposalId, address account, uint8 support, string memory reason, bytes memory params): (uint256)
    #relay(address target, uint256 value, bytes calldata data)
    ~_executor(): (address)
    +onERC721Received(address, address, uint256, bytes memory): (bytes4)
    +onERC1155Received(address, address, uint256, uint256, bytes memory): (bytes4)
    +onERC1155BatchReceived(address, address, uint256[] memory, uint256[] memory, bytes memory): (bytes4)
    ~_encodeStateBitmap(enum IGovernor.ProposalState proposalState): (bytes32)
    -_validateStateBitmap(uint256 proposalId, bytes32 allowedStates): (enum IGovernor.ProposalState)
    ~_isValidDescriptionForProposer(address proposer, string memory description): (bool)
    -_tryHexToUint(bytes1 char): (bool, uint8)
    +clock(): (uint48)$
    +CLOCK_MODE(): (string memory)$
    +votingDelay(): (uint256)$
    +votingPeriod(): (uint256)$
    +quorum(uint256 timepoint): (uint256)$
  }
  
  Governor --|> Context
  
  %% 624:235:14
  class Context {
    <<Contract>>
    ~_msgSender(): (address)
    ~_msgData(): (bytes calldata)
  }
  
  Governor --|> ERC165
  
  %% 659:251:23
  class ERC165 {
    <<Contract>>
    +supportsInterface(bytes4 interfaceId): (bool)
  }
  
  ERC165 --|> IERC165
  
  %% 421:447:24
  class IERC165 {
    <<Interface>>
    #supportsInterface(bytes4 interfaceId): (bool)$
  }
  
  Governor --|> EIP712
  
  %% 1960:4650:20
  class EIP712 {
    <<Contract>>
    ~constructor(string memory name, string memory version)
    ~_domainSeparatorV4(): (bytes32)
    -_buildDomainSeparator(): (bytes32)
    ~_hashTypedDataV4(bytes32 structHash): (bytes32)
    +eip712Domain(): (bytes1 fields, string memory name, string memory version, uint256 chainId, address verifyingContract, bytes32 salt, uint256[] memory extensions)
    ~_EIP712Name(): (string memory)
    ~_EIP712Version(): (string memory)
  }
  
  EIP712 --|> IERC5267
  
  %% 133:605:9
  class IERC5267 {
    <<Interface>>
    #eip712Domain(): (bytes1 fields, string memory name, string memory version, uint256 chainId, address verifyingContract, bytes32 salt, uint256[] memory extensions)$
  }
  
  Governor --|> Nonces
  
  %% 209:1280:15
  class Nonces {
    <<Contract>>
    +nonces(address owner): (uint256)
    ~_useNonce(address owner): (uint256)
    ~_useCheckedNonce(address owner, uint256 nonce)
  }
  
  Governor --|> IGovernor
  
  %% 289:14841:5
  class IGovernor {
    <<Interface>>
    #name(): (string memory)$
    #version(): (string memory)$
    #COUNTING_MODE(): (string memory)$
    #hashProposal(address[] memory targets, uint256[] memory values, bytes[] memory calldatas, bytes32 descriptionHash): (uint256)$
    #state(uint256 proposalId): (enum IGovernor.ProposalState)$
    #proposalThreshold(): (uint256)$
    #proposalSnapshot(uint256 proposalId): (uint256)$
    #proposalDeadline(uint256 proposalId): (uint256)$
    #proposalProposer(uint256 proposalId): (address)$
    #proposalEta(uint256 proposalId): (uint256)$
    #proposalNeedsQueuing(uint256 proposalId): (bool)$
    #votingDelay(): (uint256)$
    #votingPeriod(): (uint256)$
    #quorum(uint256 timepoint): (uint256)$
    #getVotes(address account, uint256 timepoint): (uint256)$
    #getVotesWithParams(address account, uint256 timepoint, bytes memory params): (uint256)$
    #hasVoted(uint256 proposalId, address account): (bool)$
    #propose(address[] memory targets, uint256[] memory values, bytes[] memory calldatas, string memory description): (uint256 proposalId)$
    #queue(address[] memory targets, uint256[] memory values, bytes[] memory calldatas, bytes32 descriptionHash): (uint256 proposalId)$
    #execute(address[] memory targets, uint256[] memory values, bytes[] memory calldatas, bytes32 descriptionHash): (uint256 proposalId)$
    #cancel(address[] memory targets, uint256[] memory values, bytes[] memory calldatas, bytes32 descriptionHash): (uint256 proposalId)$
    #castVote(uint256 proposalId, uint8 support): (uint256 balance)$
    #castVoteWithReason(uint256 proposalId, uint8 support, string calldata reason): (uint256 balance)$
    #castVoteWithReasonAndParams(uint256 proposalId, uint8 support, string calldata reason, bytes memory params): (uint256 balance)$
    #castVoteBySig(uint256 proposalId, uint8 support, address voter, bytes memory signature): (uint256 balance)$
    #castVoteWithReasonAndParamsBySig(uint256 proposalId, uint8 support, address voter, string calldata reason, bytes memory params, bytes memory signature): (uint256 balance)$
  }
  
  IGovernor --|> IERC165
  
  %% 421:447:24
  class IERC165 {
    <<Interface>>
    #supportsInterface(bytes4 interfaceId): (bool)$
  }
  
  IGovernor --|> IERC6372
  
  %% 133:385:10
  class IERC6372 {
    <<Interface>>
    #clock(): (uint48)$
    #CLOCK_MODE(): (string memory)$
  }
  
  Governor --|> IERC721Receiver
  
  %% 295:699:12
  class IERC721Receiver {
    <<Interface>>
    #onERC721Received(address operator, address from, uint256 tokenId, bytes calldata data): (bytes4)$
  }
  
  Governor --|> IERC1155Receiver
  
  %% 327:2269:11
  class IERC1155Receiver {
    <<Interface>>
    #onERC1155Received(address operator, address from, uint256 id, uint256 value, bytes calldata data): (bytes4)$
    #onERC1155BatchReceived(address operator, address from, uint256[] calldata ids, uint256[] calldata values, bytes calldata data): (bytes4)$
  }
  
  IERC1155Receiver --|> IERC165
  
  %% 421:447:24
  class IERC165 {
    <<Interface>>
    #supportsInterface(bytes4 interfaceId): (bool)$
  }
  