classDiagram
  %% 502:1442:6
  class ProxyAdmin {
    <<Contract>>
    +constructor(address initialOwner)
    +upgradeAndCall(contract ITransparentUpgradeableProxy proxy, address implementation, bytes memory data)
  }
  
  ProxyAdmin --|> Ownable
  
  %% 663:2438:0
  class Ownable {
    <<Contract>>
    ~constructor(address initialOwner)
    +owner(): (address)
    ~_checkOwner()
    +renounceOwnership()
    +transferOwnership(address newOwner)
    ~_transferOwnership(address newOwner)
  }
  
  Ownable --|> Context
  
  %% 624:235:9
  class Context {
    <<Contract>>
    ~_msgSender(): (address)
    ~_msgData(): (bytes calldata)
  }
  