classDiagram
  %% 4145:2226:7
  class TransparentUpgradeableProxy {
    <<Contract>>
    +constructor(address _logic, address initialOwner, bytes memory _data)
    ~_proxyAdmin(): (address)
    ~_fallback()
    -_dispatchUpgradeToAndCall()
  }
  
  TransparentUpgradeableProxy --|> ERC1967Proxy
  
  %% 599:1116:2
  class ERC1967Proxy {
    <<Contract>>
    +constructor(address implementation, bytes memory _data)
    ~_implementation(): (address)
  }
  
  ERC1967Proxy --|> Proxy
  
  %% 724:1945:4
  class Proxy {
    <<Contract>>
    ~_delegate(address implementation)
    ~_implementation(): (address)$
    ~_fallback()
    #fallback()
  }
  