classDiagram
  %% 522:828:1
  class ERC1155Holder {
    <<Contract>>
    +supportsInterface(bytes4 interfaceId): (bool)
    +onERC1155Received(address, address, uint256, uint256, bytes memory): (bytes4)
    +onERC1155BatchReceived(address, address, uint256[] memory, uint256[] memory, bytes memory): (bytes4)
  }
  
  ERC1155Holder --|> ERC165
  
  %% 659:251:2
  class ERC165 {
    <<Contract>>
    +supportsInterface(bytes4 interfaceId): (bool)
  }
  
  ERC165 --|> IERC165
  
  %% 421:447:3
  class IERC165 {
    <<Interface>>
    #supportsInterface(bytes4 interfaceId): (bool)$
  }
  
  ERC1155Holder --|> IERC1155Receiver
  
  %% 327:2269:0
  class IERC1155Receiver {
    <<Interface>>
    #onERC1155Received(address operator, address from, uint256 id, uint256 value, bytes calldata data): (bytes4)$
    #onERC1155BatchReceived(address operator, address from, uint256[] calldata ids, uint256[] calldata values, bytes calldata data): (bytes4)$
  }
  
  IERC1155Receiver --|> IERC165
  
  %% 421:447:3
  class IERC165 {
    <<Interface>>
    #supportsInterface(bytes4 interfaceId): (bool)$
  }
  