classDiagram
  %% 355:2051:1
  class AccessControlEnumerable {
    <<Contract>>
    +supportsInterface(bytes4 interfaceId): (bool)
    +getRoleMember(bytes32 role, uint256 index): (address)
    +getRoleMemberCount(bytes32 role): (uint256)
    ~_grantRole(bytes32 role, address account)
    ~_revokeRole(bytes32 role, address account)
  }
  
  AccessControlEnumerable --|> IAccessControlEnumerable
  
  %% 261:966:3
  class IAccessControlEnumerable {
    <<Interface>>
    #getRoleMember(bytes32 role, uint256 index): (address)$
    #getRoleMemberCount(bytes32 role): (uint256)$
  }
  
  IAccessControlEnumerable --|> IAccessControl
  
  %% 209:2710:2
  class IAccessControl {
    <<Interface>>
    #hasRole(bytes32 role, address account): (bool)$
    #getRoleAdmin(bytes32 role): (bytes32)$
    #grantRole(bytes32 role, address account)$
    #revokeRole(bytes32 role, address account)$
    #renounceRole(bytes32 role, address account)$
  }
  
  AccessControlEnumerable --|> AccessControl
  
  %% 1806:6295:0
  class AccessControl {
    <<Contract>>
    +supportsInterface(bytes4 interfaceId): (bool)
    +hasRole(bytes32 role, address account): (bool)
    ~_checkRole(bytes32 role)
    ~_checkRole(bytes32 role, address account)
    +getRoleAdmin(bytes32 role): (bytes32)
    +grantRole(bytes32 role, address account)
    +revokeRole(bytes32 role, address account)
    +renounceRole(bytes32 role, address account)
    ~_setupRole(bytes32 role, address account)
    ~_setRoleAdmin(bytes32 role, bytes32 adminRole)
    ~_grantRole(bytes32 role, address account)
    ~_revokeRole(bytes32 role, address account)
  }
  
  AccessControl --|> Context
  
  %% 608:235:4
  class Context {
    <<Contract>>
    ~_msgSender(): (address)
    ~_msgData(): (bytes calldata)
  }
  
  AccessControl --|> IAccessControl
  
  %% 209:2710:2
  class IAccessControl {
    <<Interface>>
    #hasRole(bytes32 role, address account): (bool)$
    #getRoleAdmin(bytes32 role): (bytes32)$
    #grantRole(bytes32 role, address account)$
    #revokeRole(bytes32 role, address account)$
    #renounceRole(bytes32 role, address account)$
  }
  
  AccessControl --|> ERC165
  
  %% 726:260:6
  class ERC165 {
    <<Contract>>
    +supportsInterface(bytes4 interfaceId): (bool)
  }
  
  ERC165 --|> IERC165
  
  %% 405:447:7
  class IERC165 {
    <<Interface>>
    #supportsInterface(bytes4 interfaceId): (bool)$
  }
  