classDiagram
  %% 341:1037:1
  class ERC165Storage {
    <<Contract>>
    +supportsInterface(bytes4 interfaceId): (bool)
    ~_registerInterface(bytes4 interfaceId)
  }
  
  ERC165Storage --|> ERC165
  
  %% 726:260:0
  class ERC165 {
    <<Contract>>
    +supportsInterface(bytes4 interfaceId): (bool)
  }
  
  ERC165 --|> IERC165
  
  %% 405:447:2
  class IERC165 {
    <<Interface>>
    #supportsInterface(bytes4 interfaceId): (bool)$
  }
  