classDiagram
  %% 929:4819:5
  class ERC20FlashMint {
    <<Contract>>
    +maxFlashLoan(address token): (uint256)
    +flashFee(address token, uint256 value): (uint256)
    ~_flashFee(address token, uint256 value): (uint256)
    ~_flashFeeReceiver(): (address)
    +flashLoan(contract IERC3156FlashBorrower receiver, address token, uint256 value, bytes calldata data): (bool)
  }
  
  ERC20FlashMint --|> ERC20
  
  %% 1401:9741:3
  class ERC20 {
    <<Contract>>
    ~constructor(string memory name_, string memory symbol_)
    +name(): (string memory)
    +symbol(): (string memory)
    +decimals(): (uint8)
    +totalSupply(): (uint256)
    +balanceOf(address account): (uint256)
    +transfer(address to, uint256 value): (bool)
    +allowance(address owner, address spender): (uint256)
    +approve(address spender, uint256 value): (bool)
    +transferFrom(address from, address to, uint256 value): (bool)
    ~_transfer(address from, address to, uint256 value)
    ~_update(address from, address to, uint256 value)
    ~_mint(address account, uint256 value)
    ~_burn(address account, uint256 value)
    ~_approve(address owner, address spender, uint256 value)
    ~_approve(address owner, address spender, uint256 value, bool emitEvent)
    ~_spendAllowance(address owner, address spender, uint256 value)
  }
  
  ERC20 --|> Context
  
  %% 624:235:7
  class Context {
    <<Contract>>
    ~_msgSender(): (address)
    ~_msgData(): (bytes calldata)
  }
  
  ERC20 --|> IERC20
  
  %% 203:2575:4
  class IERC20 {
    <<Interface>>
    #totalSupply(): (uint256)$
    #balanceOf(address account): (uint256)$
    #transfer(address to, uint256 value): (bool)$
    #allowance(address owner, address spender): (uint256)$
    #approve(address spender, uint256 value): (bool)$
    #transferFrom(address from, address to, uint256 value): (bool)$
  }
  
  ERC20 --|> IERC20Metadata
  
  %% 277:405:6
  class IERC20Metadata {
    <<Interface>>
    #name(): (string memory)$
    #symbol(): (string memory)$
    #decimals(): (uint8)$
  }
  
  IERC20Metadata --|> IERC20
  
  %% 203:2575:4
  class IERC20 {
    <<Interface>>
    #totalSupply(): (uint256)$
    #balanceOf(address account): (uint256)$
    #transfer(address to, uint256 value): (bool)$
    #allowance(address owner, address spender): (uint256)$
    #approve(address spender, uint256 value): (bool)$
    #transferFrom(address from, address to, uint256 value): (bool)$
  }
  
  ERC20 --|> IERC20Errors
  
  %% 278:1764:2
  class IERC20Errors {
    <<Interface>>
  }
  
  ERC20FlashMint --|> IERC3156FlashLender
  
  %% 334:1117:1
  class IERC3156FlashLender {
    <<Interface>>
    #maxFlashLoan(address token): (uint256)$
    #flashFee(address token, uint256 amount): (uint256)$
    #flashLoan(contract IERC3156FlashBorrower receiver, address token, uint256 amount, bytes calldata data): (bool)$
  }
  