classDiagram
  %% 2402:6398:2
  class ERC20Snapshot {
    <<Contract>>
    ~_snapshot(): (uint256)
    ~_getCurrentSnapshotId(): (uint256)
    +balanceOfAt(address account, uint256 snapshotId): (uint256)
    +totalSupplyAt(uint256 snapshotId): (uint256)
    ~_beforeTokenTransfer(address from, address to, uint256 amount)
    -_valueAt(uint256 snapshotId, struct ERC20Snapshot.Snapshots storage snapshots): (bool, uint256)
    -_updateAccountSnapshot(address account)
    -_updateTotalSupplySnapshot()
    -_updateSnapshot(struct ERC20Snapshot.Snapshots storage snapshots, uint256 currentValue)
    -_lastSnapshotId(uint256[] storage ids): (uint256)
  }
  
  ERC20Snapshot --|> ERC20
  
  %% 1401:11610:0
  class ERC20 {
    <<Contract>>
    +constructor(string memory name_, string memory symbol_)
    +name(): (string memory)
    +symbol(): (string memory)
    +decimals(): (uint8)
    +totalSupply(): (uint256)
    +balanceOf(address account): (uint256)
    +transfer(address to, uint256 amount): (bool)
    +allowance(address owner, address spender): (uint256)
    +approve(address spender, uint256 amount): (bool)
    +transferFrom(address from, address to, uint256 amount): (bool)
    +increaseAllowance(address spender, uint256 addedValue): (bool)
    +decreaseAllowance(address spender, uint256 subtractedValue): (bool)
    ~_transfer(address from, address to, uint256 amount)
    ~_mint(address account, uint256 amount)
    ~_burn(address account, uint256 amount)
    ~_approve(address owner, address spender, uint256 amount)
    ~_spendAllowance(address owner, address spender, uint256 amount)
    ~_beforeTokenTransfer(address from, address to, uint256 amount)
    ~_afterTokenTransfer(address from, address to, uint256 amount)
  }
  
  ERC20 --|> Context
  
  %% 608:235:5
  class Context {
    <<Contract>>
    ~_msgSender(): (address)
    ~_msgData(): (bytes calldata)
  }
  
  ERC20 --|> IERC20
  
  %% 202:2564:1
  class IERC20 {
    <<Interface>>
    #totalSupply(): (uint256)$
    #balanceOf(address account): (uint256)$
    #transfer(address to, uint256 amount): (bool)$
    #allowance(address owner, address spender): (uint256)$
    #approve(address spender, uint256 amount): (bool)$
    #transferFrom(address from, address to, uint256 amount): (bool)$
  }
  
  ERC20 --|> IERC20Metadata
  
  %% 277:405:3
  class IERC20Metadata {
    <<Interface>>
    #name(): (string memory)$
    #symbol(): (string memory)$
    #decimals(): (uint8)$
  }
  
  IERC20Metadata --|> IERC20
  
  %% 202:2564:1
  class IERC20 {
    <<Interface>>
    #totalSupply(): (uint256)$
    #balanceOf(address account): (uint256)$
    #transfer(address to, uint256 amount): (bool)$
    #allowance(address owner, address spender): (uint256)$
    #approve(address spender, uint256 amount): (bool)$
    #transferFrom(address from, address to, uint256 amount): (bool)$
  }
  