classDiagram
  %% 1169:2407:8
  class ERC20Votes {
    <<Contract>>
    ~_maxSupply(): (uint256)
    ~_update(address from, address to, uint256 value)
    ~_getVotingUnits(address account): (uint256)
    +numCheckpoints(address account): (uint32)
    +checkpoints(address account, uint32 pos): (struct Checkpoints.Checkpoint208 memory)
  }
  
  ERC20Votes --|> ERC20
  
  %% 1401:9741:6
  class ERC20 {
    <<Contract>>
    ~constructor(string memory name_, string memory symbol_)
    +name(): (string memory)
    +symbol(): (string memory)
    +decimals(): (uint8)
    +totalSupply(): (uint256)
    +balanceOf(address account): (uint256)
    +transfer(address to, uint256 value): (bool)
    +allowance(address owner, address spender): (uint256)
    +approve(address spender, uint256 value): (bool)
    +transferFrom(address from, address to, uint256 value): (bool)
    ~_transfer(address from, address to, uint256 value)
    ~_update(address from, address to, uint256 value)
    ~_mint(address account, uint256 value)
    ~_burn(address account, uint256 value)
    ~_approve(address owner, address spender, uint256 value)
    ~_approve(address owner, address spender, uint256 value, bool emitEvent)
    ~_spendAllowance(address owner, address spender, uint256 value)
  }
  
  ERC20 --|> Context
  
  %% 624:235:10
  class Context {
    <<Contract>>
    ~_msgSender(): (address)
    ~_msgData(): (bytes calldata)
  }
  
  ERC20 --|> IERC20
  
  %% 203:2575:7
  class IERC20 {
    <<Interface>>
    #totalSupply(): (uint256)$
    #balanceOf(address account): (uint256)$
    #transfer(address to, uint256 value): (bool)$
    #allowance(address owner, address spender): (uint256)$
    #approve(address spender, uint256 value): (bool)$
    #transferFrom(address from, address to, uint256 value): (bool)$
  }
  
  ERC20 --|> IERC20Metadata
  
  %% 277:405:9
  class IERC20Metadata {
    <<Interface>>
    #name(): (string memory)$
    #symbol(): (string memory)$
    #decimals(): (uint8)$
  }
  
  IERC20Metadata --|> IERC20
  
  %% 203:2575:7
  class IERC20 {
    <<Interface>>
    #totalSupply(): (uint256)$
    #balanceOf(address account): (uint256)$
    #transfer(address to, uint256 value): (bool)$
    #allowance(address owner, address spender): (uint256)$
    #approve(address spender, uint256 value): (bool)$
    #transferFrom(address from, address to, uint256 value): (bool)$
  }
  
  ERC20 --|> IERC20Errors
  
  %% 278:1764:5
  class IERC20Errors {
    <<Interface>>
  }
  
  ERC20Votes --|> Votes
  
  %% 1892:7747:1
  class Votes {
    <<Contract>>
    +clock(): (uint48)
    +CLOCK_MODE(): (string memory)
    +getVotes(address account): (uint256)
    +getPastVotes(address account, uint256 timepoint): (uint256)
    +getPastTotalSupply(uint256 timepoint): (uint256)
    ~_getTotalSupply(): (uint256)
    +delegates(address account): (address)
    +delegate(address delegatee)
    +delegateBySig(address delegatee, uint256 nonce, uint256 expiry, uint8 v, bytes32 r, bytes32 s)
    ~_delegate(address account, address delegatee)
    ~_transferVotingUnits(address from, address to, uint256 amount)
    -_moveDelegateVotes(address from, address to, uint256 amount)
    ~_numCheckpoints(address account): (uint32)
    ~_checkpoints(address account, uint32 pos): (struct Checkpoints.Checkpoint208 memory)
    -_push(struct Checkpoints.Trace208 storage store, function (uint208,uint208) view returns (uint208) op, uint208 delta): (uint208, uint208)
    -_add(uint208 a, uint208 b): (uint208)
    -_subtract(uint208 a, uint208 b): (uint208)
    ~_getVotingUnits(address): (uint256)$
  }
  
  Votes --|> Context
  
  %% 624:235:10
  class Context {
    <<Contract>>
    ~_msgSender(): (address)
    ~_msgData(): (bytes calldata)
  }
  
  Votes --|> EIP712
  
  %% 1960:4650:16
  class EIP712 {
    <<Contract>>
    ~constructor(string memory name, string memory version)
    ~_domainSeparatorV4(): (bytes32)
    -_buildDomainSeparator(): (bytes32)
    ~_hashTypedDataV4(bytes32 structHash): (bytes32)
    +eip712Domain(): (bytes1 fields, string memory name, string memory version, uint256 chainId, address verifyingContract, bytes32 salt, uint256[] memory extensions)
    ~_EIP712Name(): (string memory)
    ~_EIP712Version(): (string memory)
  }
  
  EIP712 --|> IERC5267
  
  %% 133:605:2
  class IERC5267 {
    <<Interface>>
    #eip712Domain(): (bytes1 fields, string memory name, string memory version, uint256 chainId, address verifyingContract, bytes32 salt, uint256[] memory extensions)$
  }
  
  Votes --|> Nonces
  
  %% 209:1280:11
  class Nonces {
    <<Contract>>
    +nonces(address owner): (uint256)
    ~_useNonce(address owner): (uint256)
    ~_useCheckedNonce(address owner, uint256 nonce)
  }
  
  Votes --|> IERC5805
  
  %% 230:41:3
  class IERC5805 {
    <<Interface>>
  }
  
  IERC5805 --|> IERC6372
  
  %% 133:385:4
  class IERC6372 {
    <<Interface>>
    #clock(): (uint48)$
    #CLOCK_MODE(): (string memory)$
  }
  
  IERC5805 --|> IVotes
  
  %% 239:2082:0
  class IVotes {
    <<Interface>>
    #getVotes(address account): (uint256)$
    #getPastVotes(address account, uint256 timepoint): (uint256)$
    #getPastTotalSupply(uint256 timepoint): (uint256)$
    #delegates(address account): (address)$
    #delegate(address delegatee)$
    #delegateBySig(address delegatee, uint256 nonce, uint256 expiry, uint8 v, bytes32 r, bytes32 s)$
  }
  