classDiagram
  %% 3158:9247:4
  class ERC4626 {
    <<Contract>>
    ~constructor(contract IERC20 asset_)
    -_tryGetAssetDecimals(contract IERC20 asset_): (bool, uint8)
    +decimals(): (uint8)
    +asset(): (address)
    +totalAssets(): (uint256)
    +convertToShares(uint256 assets): (uint256)
    +convertToAssets(uint256 shares): (uint256)
    +maxDeposit(address): (uint256)
    +maxMint(address): (uint256)
    +maxWithdraw(address owner): (uint256)
    +maxRedeem(address owner): (uint256)
    +previewDeposit(uint256 assets): (uint256)
    +previewMint(uint256 shares): (uint256)
    +previewWithdraw(uint256 assets): (uint256)
    +previewRedeem(uint256 shares): (uint256)
    +deposit(uint256 assets, address receiver): (uint256)
    +mint(uint256 shares, address receiver): (uint256)
    +withdraw(uint256 assets, address receiver, address owner): (uint256)
    +redeem(uint256 shares, address receiver, address owner): (uint256)
    ~_convertToShares(uint256 assets, enum Math.Rounding rounding): (uint256)
    ~_convertToAssets(uint256 shares, enum Math.Rounding rounding): (uint256)
    ~_deposit(address caller, address receiver, uint256 assets, uint256 shares)
    ~_withdraw(address caller, address receiver, address owner, uint256 assets, uint256 shares)
    ~_decimalsOffset(): (uint8)
  }
  
  ERC4626 --|> ERC20
  
  %% 1401:9741:2
  class ERC20 {
    <<Contract>>
    ~constructor(string memory name_, string memory symbol_)
    +name(): (string memory)
    +symbol(): (string memory)
    +decimals(): (uint8)
    +totalSupply(): (uint256)
    +balanceOf(address account): (uint256)
    +transfer(address to, uint256 value): (bool)
    +allowance(address owner, address spender): (uint256)
    +approve(address spender, uint256 value): (bool)
    +transferFrom(address from, address to, uint256 value): (bool)
    ~_transfer(address from, address to, uint256 value)
    ~_update(address from, address to, uint256 value)
    ~_mint(address account, uint256 value)
    ~_burn(address account, uint256 value)
    ~_approve(address owner, address spender, uint256 value)
    ~_approve(address owner, address spender, uint256 value, bool emitEvent)
    ~_spendAllowance(address owner, address spender, uint256 value)
  }
  
  ERC20 --|> Context
  
  %% 624:235:9
  class Context {
    <<Contract>>
    ~_msgSender(): (address)
    ~_msgData(): (bytes calldata)
  }
  
  ERC20 --|> IERC20
  
  %% 203:2575:3
  class IERC20 {
    <<Interface>>
    #totalSupply(): (uint256)$
    #balanceOf(address account): (uint256)$
    #transfer(address to, uint256 value): (bool)$
    #allowance(address owner, address spender): (uint256)$
    #approve(address spender, uint256 value): (bool)$
    #transferFrom(address from, address to, uint256 value): (bool)$
  }
  
  ERC20 --|> IERC20Metadata
  
  %% 277:405:5
  class IERC20Metadata {
    <<Interface>>
    #name(): (string memory)$
    #symbol(): (string memory)$
    #decimals(): (uint8)$
  }
  
  IERC20Metadata --|> IERC20
  
  %% 203:2575:3
  class IERC20 {
    <<Interface>>
    #totalSupply(): (uint256)$
    #balanceOf(address account): (uint256)$
    #transfer(address to, uint256 value): (bool)$
    #allowance(address owner, address spender): (uint256)$
    #approve(address spender, uint256 value): (bool)$
    #transferFrom(address from, address to, uint256 value): (bool)$
  }
  
  ERC20 --|> IERC20Errors
  
  %% 278:1764:1
  class IERC20Errors {
    <<Interface>>
  }
  
  ERC4626 --|> IERC4626
  
  %% 398:11784:0
  class IERC4626 {
    <<Interface>>
    #asset(): (address assetTokenAddress)$
    #totalAssets(): (uint256 totalManagedAssets)$
    #convertToShares(uint256 assets): (uint256 shares)$
    #convertToAssets(uint256 shares): (uint256 assets)$
    #maxDeposit(address receiver): (uint256 maxAssets)$
    #previewDeposit(uint256 assets): (uint256 shares)$
    #deposit(uint256 assets, address receiver): (uint256 shares)$
    #maxMint(address receiver): (uint256 maxShares)$
    #previewMint(uint256 shares): (uint256 assets)$
    #mint(uint256 shares, address receiver): (uint256 assets)$
    #maxWithdraw(address owner): (uint256 maxAssets)$
    #previewWithdraw(uint256 assets): (uint256 shares)$
    #withdraw(uint256 assets, address receiver, address owner): (uint256 shares)$
    #maxRedeem(address owner): (uint256 maxShares)$
    #previewRedeem(uint256 shares): (uint256 assets)$
    #redeem(uint256 shares, address receiver, address owner): (uint256 assets)$
  }
  
  IERC4626 --|> IERC20
  
  %% 203:2575:3
  class IERC20 {
    <<Interface>>
    #totalSupply(): (uint256)$
    #balanceOf(address account): (uint256)$
    #transfer(address to, uint256 value): (bool)$
    #allowance(address owner, address spender): (uint256)$
    #approve(address spender, uint256 value): (bool)$
    #transferFrom(address from, address to, uint256 value): (bool)$
  }
  
  IERC4626 --|> IERC20Metadata
  
  %% 277:405:5
  class IERC20Metadata {
    <<Interface>>
    #name(): (string memory)$
    #symbol(): (string memory)$
    #decimals(): (uint8)$
  }
  
  IERC20Metadata --|> IERC20
  
  %% 203:2575:3
  class IERC20 {
    <<Interface>>
    #totalSupply(): (uint256)$
    #balanceOf(address account): (uint256)$
    #transfer(address to, uint256 value): (bool)$
    #allowance(address owner, address spender): (uint256)$
    #approve(address spender, uint256 value): (bool)$
    #transferFrom(address from, address to, uint256 value): (bool)$
  }
  