classDiagram
  %% 1638:4032:1
  class VestingWallet {
    <<Contract>>
    +constructor(address beneficiary, uint64 startTimestamp, uint64 durationSeconds)
    #receive()
    +start(): (uint256)
    +duration(): (uint256)
    +end(): (uint256)
    +released(): (uint256)
    +released(address token): (uint256)
    +releasable(): (uint256)
    +releasable(address token): (uint256)
    +release()
    +release(address token)
    +vestedAmount(uint64 timestamp): (uint256)
    +vestedAmount(address token, uint64 timestamp): (uint256)
    ~_vestingSchedule(uint256 totalAllocation, uint64 timestamp): (uint256)
  }
  
  VestingWallet --|> Context
  
  %% 624:235:6
  class Context {
    <<Contract>>
    ~_msgSender(): (address)
    ~_msgData(): (bytes calldata)
  }
  
  VestingWallet --|> Ownable
  
  %% 663:2438:0
  class Ownable {
    <<Contract>>
    ~constructor(address initialOwner)
    +owner(): (address)
    ~_checkOwner()
    +renounceOwnership()
    +transferOwnership(address newOwner)
    ~_transferOwnership(address newOwner)
  }
  
  Ownable --|> Context
  
  %% 624:235:6
  class Context {
    <<Contract>>
    ~_msgSender(): (address)
    ~_msgData(): (bytes calldata)
  }
  