classDiagram
  %% 555:1663:2
  class UpgradeableBeacon {
    <<Contract>>
    +constructor(address implementation_, address initialOwner)
    +implementation(): (address)
    +upgradeTo(address newImplementation)
    -_setImplementation(address newImplementation)
  }
  
  UpgradeableBeacon --|> IBeacon
  
  %% 214:257:1
  class IBeacon {
    <<Interface>>
    #implementation(): (address)$
  }
  
  UpgradeableBeacon --|> Ownable
  
  %% 663:2438:0
  class Ownable {
    <<Contract>>
    ~constructor(address initialOwner)
    +owner(): (address)
    ~_checkOwner()
    +renounceOwnership()
    +transferOwnership(address newOwner)
    ~_transferOwnership(address newOwner)
  }
  
  Ownable --|> Context
  
  %% 624:235:3
  class Context {
    <<Contract>>
    ~_msgSender(): (address)
    ~_msgData(): (bytes calldata)
  }
  