classDiagram
  %% 742:1087:9
  class ERC721Votes {
    <<Contract>>
    ~_update(address to, uint256 tokenId, address auth): (address)
    ~_getVotingUnits(address account): (uint256)
    ~_increaseBalance(address account, uint128 amount)
  }
  
  ERC721Votes --|> ERC721
  
  %% 776:16926:6
  class ERC721 {
    <<Contract>>
    ~constructor(string memory name_, string memory symbol_)
    +supportsInterface(bytes4 interfaceId): (bool)
    +balanceOf(address owner): (uint256)
    +ownerOf(uint256 tokenId): (address)
    +name(): (string memory)
    +symbol(): (string memory)
    +tokenURI(uint256 tokenId): (string memory)
    ~_baseURI(): (string memory)
    +approve(address to, uint256 tokenId)
    +getApproved(uint256 tokenId): (address)
    +setApprovalForAll(address operator, bool approved)
    +isApprovedForAll(address owner, address operator): (bool)
    +transferFrom(address from, address to, uint256 tokenId)
    +safeTransferFrom(address from, address to, uint256 tokenId)
    +safeTransferFrom(address from, address to, uint256 tokenId, bytes memory data)
    ~_ownerOf(uint256 tokenId): (address)
    ~_getApproved(uint256 tokenId): (address)
    ~_isAuthorized(address owner, address spender, uint256 tokenId): (bool)
    ~_checkAuthorized(address owner, address spender, uint256 tokenId)
    ~_increaseBalance(address account, uint128 value)
    ~_update(address to, uint256 tokenId, address auth): (address)
    ~_mint(address to, uint256 tokenId)
    ~_safeMint(address to, uint256 tokenId)
    ~_safeMint(address to, uint256 tokenId, bytes memory data)
    ~_burn(uint256 tokenId)
    ~_transfer(address from, address to, uint256 tokenId)
    ~_safeTransfer(address from, address to, uint256 tokenId)
    ~_safeTransfer(address from, address to, uint256 tokenId, bytes memory data)
    ~_approve(address to, uint256 tokenId, address auth)
    ~_approve(address to, uint256 tokenId, address auth, bool emitEvent)
    ~_setApprovalForAll(address owner, address operator, bool approved)
    ~_requireOwned(uint256 tokenId): (address)
    -_checkOnERC721Received(address from, address to, uint256 tokenId, bytes memory data)
  }
  
  ERC721 --|> Context
  
  %% 624:235:11
  class Context {
    <<Contract>>
    ~_msgSender(): (address)
    ~_msgData(): (bytes calldata)
  }
  
  ERC721 --|> ERC165
  
  %% 659:251:19
  class ERC165 {
    <<Contract>>
    +supportsInterface(bytes4 interfaceId): (bool)
  }
  
  ERC165 --|> IERC165
  
  %% 421:447:20
  class IERC165 {
    <<Interface>>
    #supportsInterface(bytes4 interfaceId): (bool)$
  }
  
  ERC721 --|> IERC721
  
  %% 266:4659:7
  class IERC721 {
    <<Interface>>
    #balanceOf(address owner): (uint256 balance)$
    #ownerOf(uint256 tokenId): (address owner)$
    #safeTransferFrom(address from, address to, uint256 tokenId, bytes calldata data)$
    #safeTransferFrom(address from, address to, uint256 tokenId)$
    #transferFrom(address from, address to, uint256 tokenId)$
    #approve(address to, uint256 tokenId)$
    #setApprovalForAll(address operator, bool approved)$
    #getApproved(uint256 tokenId): (address operator)$
    #isApprovedForAll(address owner, address operator): (bool)$
  }
  
  IERC721 --|> IERC165
  
  %% 421:447:20
  class IERC165 {
    <<Interface>>
    #supportsInterface(bytes4 interfaceId): (bool)$
  }
  
  ERC721 --|> IERC721Metadata
  
  %% 328:463:10
  class IERC721Metadata {
    <<Interface>>
    #name(): (string memory)$
    #symbol(): (string memory)$
    #tokenURI(uint256 tokenId): (string memory)$
  }
  
  IERC721Metadata --|> IERC721
  
  %% 266:4659:7
  class IERC721 {
    <<Interface>>
    #balanceOf(address owner): (uint256 balance)$
    #ownerOf(uint256 tokenId): (address owner)$
    #safeTransferFrom(address from, address to, uint256 tokenId, bytes calldata data)$
    #safeTransferFrom(address from, address to, uint256 tokenId)$
    #transferFrom(address from, address to, uint256 tokenId)$
    #approve(address to, uint256 tokenId)$
    #setApprovalForAll(address operator, bool approved)$
    #getApproved(uint256 tokenId): (address operator)$
    #isApprovedForAll(address owner, address operator): (bool)$
  }
  
  IERC721 --|> IERC165
  
  %% 421:447:20
  class IERC165 {
    <<Interface>>
    #supportsInterface(bytes4 interfaceId): (bool)$
  }
  
  ERC721 --|> IERC721Errors
  
  %% 2186:2092:5
  class IERC721Errors {
    <<Interface>>
  }
  
  ERC721Votes --|> Votes
  
  %% 1892:7747:1
  class Votes {
    <<Contract>>
    +clock(): (uint48)
    +CLOCK_MODE(): (string memory)
    +getVotes(address account): (uint256)
    +getPastVotes(address account, uint256 timepoint): (uint256)
    +getPastTotalSupply(uint256 timepoint): (uint256)
    ~_getTotalSupply(): (uint256)
    +delegates(address account): (address)
    +delegate(address delegatee)
    +delegateBySig(address delegatee, uint256 nonce, uint256 expiry, uint8 v, bytes32 r, bytes32 s)
    ~_delegate(address account, address delegatee)
    ~_transferVotingUnits(address from, address to, uint256 amount)
    -_moveDelegateVotes(address from, address to, uint256 amount)
    ~_numCheckpoints(address account): (uint32)
    ~_checkpoints(address account, uint32 pos): (struct Checkpoints.Checkpoint208 memory)
    -_push(struct Checkpoints.Trace208 storage store, function (uint208,uint208) view returns (uint208) op, uint208 delta): (uint208, uint208)
    -_add(uint208 a, uint208 b): (uint208)
    -_subtract(uint208 a, uint208 b): (uint208)
    ~_getVotingUnits(address): (uint256)$
  }
  
  Votes --|> Context
  
  %% 624:235:11
  class Context {
    <<Contract>>
    ~_msgSender(): (address)
    ~_msgData(): (bytes calldata)
  }
  
  Votes --|> EIP712
  
  %% 1960:4650:17
  class EIP712 {
    <<Contract>>
    ~constructor(string memory name, string memory version)
    ~_domainSeparatorV4(): (bytes32)
    -_buildDomainSeparator(): (bytes32)
    ~_hashTypedDataV4(bytes32 structHash): (bytes32)
    +eip712Domain(): (bytes1 fields, string memory name, string memory version, uint256 chainId, address verifyingContract, bytes32 salt, uint256[] memory extensions)
    ~_EIP712Name(): (string memory)
    ~_EIP712Version(): (string memory)
  }
  
  EIP712 --|> IERC5267
  
  %% 133:605:2
  class IERC5267 {
    <<Interface>>
    #eip712Domain(): (bytes1 fields, string memory name, string memory version, uint256 chainId, address verifyingContract, bytes32 salt, uint256[] memory extensions)$
  }
  
  Votes --|> Nonces
  
  %% 209:1280:12
  class Nonces {
    <<Contract>>
    +nonces(address owner): (uint256)
    ~_useNonce(address owner): (uint256)
    ~_useCheckedNonce(address owner, uint256 nonce)
  }
  
  Votes --|> IERC5805
  
  %% 230:41:3
  class IERC5805 {
    <<Interface>>
  }
  
  IERC5805 --|> IERC6372
  
  %% 133:385:4
  class IERC6372 {
    <<Interface>>
    #clock(): (uint48)$
    #CLOCK_MODE(): (string memory)$
  }
  
  IERC5805 --|> IVotes
  
  %% 239:2082:0
  class IVotes {
    <<Interface>>
    #getVotes(address account): (uint256)$
    #getPastVotes(address account, uint256 timepoint): (uint256)$
    #getPastTotalSupply(uint256 timepoint): (uint256)$
    #delegates(address account): (address)$
    #delegate(address delegatee)$
    #delegateBySig(address delegatee, uint256 nonce, uint256 expiry, uint8 v, bytes32 r, bytes32 s)$
  }
  