classDiagram
  %% 230:41:1
  class IERC5805 {
    <<Interface>>
  }
  
  IERC5805 --|> IERC6372
  
  %% 133:385:2
  class IERC6372 {
    <<Interface>>
    #clock(): (uint48)$
    #CLOCK_MODE(): (string memory)$
  }
  
  IERC5805 --|> IVotes
  
  %% 239:2082:0
  class IVotes {
    <<Interface>>
    #getVotes(address account): (uint256)$
    #getPastVotes(address account, uint256 timepoint): (uint256)$
    #getPastTotalSupply(uint256 timepoint): (uint256)$
    #delegates(address account): (address)$
    #delegate(address delegatee)$
    #delegateBySig(address delegatee, uint256 nonce, uint256 expiry, uint8 v, bytes32 r, bytes32 s)$
  }
  