classDiagram
  %% 257:583:1
  class IERC4906 {
    <<Interface>>
  }
  
  IERC4906 --|> IERC165
  
  %% 421:447:4
  class IERC165 {
    <<Interface>>
    #supportsInterface(bytes4 interfaceId): (bool)$
  }
  
  IERC4906 --|> IERC721
  
  %% 266:4659:3
  class IERC721 {
    <<Interface>>
    #balanceOf(address owner): (uint256 balance)$
    #ownerOf(uint256 tokenId): (address owner)$
    #safeTransferFrom(address from, address to, uint256 tokenId, bytes calldata data)$
    #safeTransferFrom(address from, address to, uint256 tokenId)$
    #transferFrom(address from, address to, uint256 tokenId)$
    #approve(address to, uint256 tokenId)$
    #setApprovalForAll(address operator, bool approved)$
    #getApproved(uint256 tokenId): (address operator)$
    #isApprovedForAll(address owner, address operator): (bool)$
  }
  
  IERC721 --|> IERC165
  
  %% 421:447:4
  class IERC165 {
    <<Interface>>
    #supportsInterface(bytes4 interfaceId): (bool)$
  }
  