classDiagram
  %% 398:11784:0
  class IERC4626 {
    <<Interface>>
    #asset(): (address assetTokenAddress)$
    #totalAssets(): (uint256 totalManagedAssets)$
    #convertToShares(uint256 assets): (uint256 shares)$
    #convertToAssets(uint256 shares): (uint256 assets)$
    #maxDeposit(address receiver): (uint256 maxAssets)$
    #previewDeposit(uint256 assets): (uint256 shares)$
    #deposit(uint256 assets, address receiver): (uint256 shares)$
    #maxMint(address receiver): (uint256 maxShares)$
    #previewMint(uint256 shares): (uint256 assets)$
    #mint(uint256 shares, address receiver): (uint256 assets)$
    #maxWithdraw(address owner): (uint256 maxAssets)$
    #previewWithdraw(uint256 assets): (uint256 shares)$
    #withdraw(uint256 assets, address receiver, address owner): (uint256 shares)$
    #maxRedeem(address owner): (uint256 maxShares)$
    #previewRedeem(uint256 shares): (uint256 assets)$
    #redeem(uint256 shares, address receiver, address owner): (uint256 assets)$
  }
  
  IERC4626 --|> IERC20
  
  %% 203:2575:1
  class IERC20 {
    <<Interface>>
    #totalSupply(): (uint256)$
    #balanceOf(address account): (uint256)$
    #transfer(address to, uint256 value): (bool)$
    #allowance(address owner, address spender): (uint256)$
    #approve(address spender, uint256 value): (bool)$
    #transferFrom(address from, address to, uint256 value): (bool)$
  }
  
  IERC4626 --|> IERC20Metadata
  
  %% 277:405:2
  class IERC20Metadata {
    <<Interface>>
    #name(): (string memory)$
    #symbol(): (string memory)$
    #decimals(): (uint8)$
  }
  
  IERC20Metadata --|> IERC20
  
  %% 203:2575:1
  class IERC20 {
    <<Interface>>
    #totalSupply(): (uint256)$
    #balanceOf(address account): (uint256)$
    #transfer(address to, uint256 value): (bool)$
    #allowance(address owner, address spender): (uint256)$
    #approve(address spender, uint256 value): (bool)$
    #transferFrom(address from, address to, uint256 value): (bool)$
  }
  