classDiagram
  %% 1084:15205:2
  class TimelockController {
    <<Contract>>
    +constructor(uint256 minDelay, address[] memory proposers, address[] memory executors, address admin)
    #receive()
    +supportsInterface(bytes4 interfaceId): (bool)
    +isOperation(bytes32 id): (bool)
    +isOperationPending(bytes32 id): (bool)
    +isOperationReady(bytes32 id): (bool)
    +isOperationDone(bytes32 id): (bool)
    +getTimestamp(bytes32 id): (uint256)
    +getOperationState(bytes32 id): (enum TimelockController.OperationState)
    +getMinDelay(): (uint256)
    +hashOperation(address target, uint256 value, bytes calldata data, bytes32 predecessor, bytes32 salt): (bytes32)
    +hashOperationBatch(address[] calldata targets, uint256[] calldata values, bytes[] calldata payloads, bytes32 predecessor, bytes32 salt): (bytes32)
    +schedule(address target, uint256 value, bytes calldata data, bytes32 predecessor, bytes32 salt, uint256 delay)
    +scheduleBatch(address[] calldata targets, uint256[] calldata values, bytes[] calldata payloads, bytes32 predecessor, bytes32 salt, uint256 delay)
    -_schedule(bytes32 id, uint256 delay)
    +cancel(bytes32 id)
    +execute(address target, uint256 value, bytes calldata payload, bytes32 predecessor, bytes32 salt)
    +executeBatch(address[] calldata targets, uint256[] calldata values, bytes[] calldata payloads, bytes32 predecessor, bytes32 salt)
    ~_execute(address target, uint256 value, bytes calldata data)
    -_beforeCall(bytes32 id, bytes32 predecessor)
    -_afterCall(bytes32 id)
    #updateDelay(uint256 newDelay)
    ~_encodeStateBitmap(enum TimelockController.OperationState operationState): (bytes32)
  }
  
  TimelockController --|> AccessControl
  
  %% 1953:5096:0
  class AccessControl {
    <<Contract>>
    +supportsInterface(bytes4 interfaceId): (bool)
    +hasRole(bytes32 role, address account): (bool)
    ~_checkRole(bytes32 role)
    ~_checkRole(bytes32 role, address account)
    +getRoleAdmin(bytes32 role): (bytes32)
    +grantRole(bytes32 role, address account)
    +revokeRole(bytes32 role, address account)
    +renounceRole(bytes32 role, address callerConfirmation)
    ~_setRoleAdmin(bytes32 role, bytes32 adminRole)
    ~_grantRole(bytes32 role, address account): (bool)
    ~_revokeRole(bytes32 role, address account): (bool)
  }
  
  AccessControl --|> Context
  
  %% 624:235:8
  class Context {
    <<Contract>>
    ~_msgSender(): (address)
    ~_msgData(): (bytes calldata)
  }
  
  AccessControl --|> IAccessControl
  
  %% 225:3033:1
  class IAccessControl {
    <<Interface>>
    #hasRole(bytes32 role, address account): (bool)$
    #getRoleAdmin(bytes32 role): (bytes32)$
    #grantRole(bytes32 role, address account)$
    #revokeRole(bytes32 role, address account)$
    #renounceRole(bytes32 role, address callerConfirmation)$
  }
  
  AccessControl --|> ERC165
  
  %% 659:251:9
  class ERC165 {
    <<Contract>>
    +supportsInterface(bytes4 interfaceId): (bool)
  }
  
  ERC165 --|> IERC165
  
  %% 421:447:10
  class IERC165 {
    <<Interface>>
    #supportsInterface(bytes4 interfaceId): (bool)$
  }
  
  TimelockController --|> ERC721Holder
  
  %% 441:353:6
  class ERC721Holder {
    <<Contract>>
    +onERC721Received(address, address, uint256, bytes memory): (bytes4)
  }
  
  ERC721Holder --|> IERC721Receiver
  
  %% 295:699:5
  class IERC721Receiver {
    <<Interface>>
    #onERC721Received(address operator, address from, uint256 tokenId, bytes calldata data): (bytes4)$
  }
  
  TimelockController --|> ERC1155Holder
  
  %% 522:828:4
  class ERC1155Holder {
    <<Contract>>
    +supportsInterface(bytes4 interfaceId): (bool)
    +onERC1155Received(address, address, uint256, uint256, bytes memory): (bytes4)
    +onERC1155BatchReceived(address, address, uint256[] memory, uint256[] memory, bytes memory): (bytes4)
  }
  
  ERC1155Holder --|> ERC165
  
  %% 659:251:9
  class ERC165 {
    <<Contract>>
    +supportsInterface(bytes4 interfaceId): (bool)
  }
  
  ERC165 --|> IERC165
  
  %% 421:447:10
  class IERC165 {
    <<Interface>>
    #supportsInterface(bytes4 interfaceId): (bool)$
  }
  
  ERC1155Holder --|> IERC1155Receiver
  
  %% 327:2269:3
  class IERC1155Receiver {
    <<Interface>>
    #onERC1155Received(address operator, address from, uint256 id, uint256 value, bytes calldata data): (bytes4)$
    #onERC1155BatchReceived(address operator, address from, uint256[] calldata ids, uint256[] calldata values, bytes calldata data): (bytes4)$
  }
  
  IERC1155Receiver --|> IERC165
  
  %% 421:447:10
  class IERC165 {
    <<Interface>>
    #supportsInterface(bytes4 interfaceId): (bool)$
  }
  