classDiagram
  %% 727:16204:1
  class ERC1155 {
    <<Contract>>
    ~constructor(string memory uri_)
    +supportsInterface(bytes4 interfaceId): (bool)
    +uri(uint256): (string memory)
    +balanceOf(address account, uint256 id): (uint256)
    +balanceOfBatch(address[] memory accounts, uint256[] memory ids): (uint256[] memory)
    +setApprovalForAll(address operator, bool approved)
    +isApprovedForAll(address account, address operator): (bool)
    +safeTransferFrom(address from, address to, uint256 id, uint256 value, bytes memory data)
    +safeBatchTransferFrom(address from, address to, uint256[] memory ids, uint256[] memory values, bytes memory data)
    ~_update(address from, address to, uint256[] memory ids, uint256[] memory values)
    ~_updateWithAcceptanceCheck(address from, address to, uint256[] memory ids, uint256[] memory values, bytes memory data)
    ~_safeTransferFrom(address from, address to, uint256 id, uint256 value, bytes memory data)
    ~_safeBatchTransferFrom(address from, address to, uint256[] memory ids, uint256[] memory values, bytes memory data)
    ~_setURI(string memory newuri)
    ~_mint(address to, uint256 id, uint256 value, bytes memory data)
    ~_mintBatch(address to, uint256[] memory ids, uint256[] memory values, bytes memory data)
    ~_burn(address from, uint256 id, uint256 value)
    ~_burnBatch(address from, uint256[] memory ids, uint256[] memory values)
    ~_setApprovalForAll(address owner, address operator, bool approved)
    -_doSafeTransferAcceptanceCheck(address operator, address from, address to, uint256 id, uint256 value, bytes memory data)
    -_doSafeBatchTransferAcceptanceCheck(address operator, address from, address to, uint256[] memory ids, uint256[] memory values, bytes memory data)
    -_asSingletonArrays(uint256 element1, uint256 element2): (uint256[] memory array1, uint256[] memory array2)
  }
  
  ERC1155 --|> Context
  
  %% 624:235:6
  class Context {
    <<Contract>>
    ~_msgSender(): (address)
    ~_msgData(): (bytes calldata)
  }
  
  ERC1155 --|> ERC165
  
  %% 659:251:8
  class ERC165 {
    <<Contract>>
    +supportsInterface(bytes4 interfaceId): (bool)
  }
  
  ERC165 --|> IERC165
  
  %% 421:447:9
  class IERC165 {
    <<Interface>>
    #supportsInterface(bytes4 interfaceId): (bool)$
  }
  
  ERC1155 --|> IERC1155
  
  %% 336:4384:2
  class IERC1155 {
    <<Interface>>
    #balanceOf(address account, uint256 id): (uint256)$
    #balanceOfBatch(address[] calldata accounts, uint256[] calldata ids): (uint256[] memory)$
    #setApprovalForAll(address operator, bool approved)$
    #isApprovedForAll(address account, address operator): (bool)$
    #safeTransferFrom(address from, address to, uint256 id, uint256 value, bytes calldata data)$
    #safeBatchTransferFrom(address from, address to, uint256[] calldata ids, uint256[] calldata values, bytes calldata data)$
  }
  
  IERC1155 --|> IERC165
  
  %% 421:447:9
  class IERC165 {
    <<Interface>>
    #supportsInterface(bytes4 interfaceId): (bool)$
  }
  
  ERC1155 --|> IERC1155MetadataURI
  
  %% 366:310:4
  class IERC1155MetadataURI {
    <<Interface>>
    #uri(uint256 id): (string memory)$
  }
  
  IERC1155MetadataURI --|> IERC1155
  
  %% 336:4384:2
  class IERC1155 {
    <<Interface>>
    #balanceOf(address account, uint256 id): (uint256)$
    #balanceOfBatch(address[] calldata accounts, uint256[] calldata ids): (uint256[] memory)$
    #setApprovalForAll(address operator, bool approved)$
    #isApprovedForAll(address account, address operator): (bool)$
    #safeTransferFrom(address from, address to, uint256 id, uint256 value, bytes calldata data)$
    #safeBatchTransferFrom(address from, address to, uint256[] calldata ids, uint256[] calldata values, bytes calldata data)$
  }
  
  IERC1155 --|> IERC165
  
  %% 421:447:9
  class IERC165 {
    <<Interface>>
    #supportsInterface(bytes4 interfaceId): (bool)$
  }
  
  ERC1155 --|> IERC1155Errors
  
  %% 4424:2107:0
  class IERC1155Errors {
    <<Interface>>
  }
  